<svg width="891" height="227" viewBox="0 0 891 227" fill="none" xmlns="http://www.w3.org/2000/svg">
<path d="M863.7 71.6797C860.8 71.1797 858.5 69.9797 856.75 68.0797C855 66.1297 854.15 63.6797 854.15 60.7297C854.15 57.1797 855.35 54.3297 857.8 52.2297C860.2 50.1297 863.45 49.0797 867.55 49.0797C871.6 49.0797 874.9 50.1297 877.45 52.2797C880 54.4297 881.3 57.2297 881.3 60.7297C881.3 64.3297 880 67.0797 877.5 69.0297C874.95 70.9297 871.8 71.9297 868.1 71.9297H867.4V51.1797C864.15 51.1797 861.4 51.9797 859.2 53.5797C856.95 55.1797 855.85 57.5797 855.85 60.7797C855.85 63.0797 856.5 65.0297 857.9 66.5797C859.25 68.1297 861.2 69.1797 863.7 69.6797V71.6797ZM869.15 69.8797C871.95 69.8797 874.4 69.0797 876.45 67.4797C878.45 65.8797 879.5 63.6297 879.5 60.7297C879.5 57.7797 878.5 55.5297 876.6 53.9797C874.65 52.3797 872.15 51.4797 869.15 51.1797V69.8797Z" fill="black"/>
<path d="M890.6 44.3H854.95V42.2H881.6C883.9 42.2 886.25 42.3 888.55 42.5C888.1 42.3 887.4 42 886.45 41.7C885.5 41.35 884.8 41.1 884.35 40.9L854.95 28.35V26.25L884 13.65C884.15 13.55 885.65 13 888.5 12C884.65 12.15 882.35 12.25 881.6 12.25H854.95V10.15H890.55V13.15L864.15 24.5L857.2 27.3C858.9 27.9 861 28.7 863.45 29.8C876.3 35.25 885.35 39.1 890.6 41.35V44.3Z" fill="black"/>
<path d="M199.679 12.48V40H197.999V15.44C196.839 16.6 195.719 17.44 194.639 17.92C193.599 18.44 192.239 18.8 190.639 18.96V17.6C192.479 17.2 193.919 16.68 194.959 16C195.999 15.32 197.079 14.16 198.239 12.48H199.679Z" fill="black"/>
<path d="M175.253 12C176.773 12 178.133 12.32 179.333 12.88C180.533 13.48 181.493 14.24 182.213 15.16C182.933 16.12 183.533 17.2 184.013 18.48C184.493 19.76 184.813 21.04 184.973 22.32C185.133 23.6 185.253 24.92 185.253 26.32C185.253 28.08 185.093 29.76 184.773 31.32C184.453 32.88 183.973 34.4 183.253 35.88C182.533 37.32 181.453 38.48 180.093 39.36C178.733 40.2 177.093 40.64 175.173 40.64C171.973 40.64 169.493 39.44 167.813 37.04C166.093 34.64 165.253 31.24 165.253 26.76C165.253 24.96 165.373 23.28 165.693 21.68C166.013 20.08 166.493 18.52 167.213 17C167.893 15.48 168.933 14.28 170.293 13.36C171.653 12.48 173.333 12 175.253 12ZM175.253 13.52C172.613 13.52 170.533 14.72 169.093 17.04C167.613 19.36 166.893 22.64 166.893 26.84C166.893 28 166.933 29.12 167.093 30.2C167.213 31.24 167.453 32.36 167.853 33.48C168.213 34.6 168.693 35.6 169.293 36.4C169.893 37.2 170.693 37.88 171.693 38.4C172.693 38.92 173.853 39.16 175.173 39.16C176.773 39.16 178.173 38.76 179.373 37.96C180.533 37.16 181.413 36.12 181.973 34.76C182.533 33.4 182.973 32.04 183.213 30.68C183.453 29.32 183.573 27.84 183.573 26.32C183.573 24.8 183.453 23.36 183.213 22C182.973 20.64 182.573 19.32 182.013 17.96C181.453 16.6 180.573 15.52 179.413 14.72C178.253 13.92 176.853 13.52 175.253 13.52Z" fill="black"/>
<path d="M159.56 35.92V40H157.56V35.92H159.56Z" fill="black"/>
<path d="M0 44V43H209V44H0Z" fill="black"/>
<path d="M111 53V52H209V53H111Z" fill="black"/>
<path fill-rule="evenodd" clip-rule="evenodd" d="M840 1H224C219.029 1 215 5.02944 215 10V210C215 214.971 219.029 219 224 219H840C844.971 219 849 214.971 849 210V10C849 5.02944 844.971 1 840 1ZM224 0C218.477 0 214 4.47716 214 10V210C214 215.523 218.477 220 224 220H840C845.523 220 850 215.523 850 210V10C850 4.47715 845.523 0 840 0H224Z" fill="black"/>
<path d="M208 17C208 11.4772 212.477 7 218 7H834C839.523 7 844 11.4772 844 17V217C844 222.523 839.523 227 834 227H218C212.477 227 208 222.523 208 217V17Z" fill="#F5F5F5"/>
<path fill-rule="evenodd" clip-rule="evenodd" d="M834 8H218C213.029 8 209 12.0294 209 17V217C209 221.971 213.029 226 218 226H834C838.971 226 843 221.971 843 217V17C843 12.0294 838.971 8 834 8ZM218 7C212.477 7 208 11.4772 208 17V217C208 222.523 212.477 227 218 227H834C839.523 227 844 222.523 844 217V17C844 11.4772 839.523 7 834 7H218Z" fill="black"/>
<path d="M689.1 83.32L688.96 86.12H673.14V137.92C673.14 140.16 673.28 141.7 673.28 142.54C673.28 143.38 673.42 144.5 673.7 146.18C673.98 147.86 674.54 148.98 675.1 149.68C675.8 150.38 676.78 151.08 678.18 151.64C679.58 152.2 681.12 152.62 683.08 152.62C684.76 152.62 686.72 152.34 688.96 152.06V154.86C686.72 155.14 684.76 155.42 683.22 155.42C680.14 155.42 677.76 155 675.8 154.16C673.98 153.32 672.72 151.92 671.88 149.96C671.18 148 670.76 146.32 670.62 144.64C670.34 142.96 670.34 140.58 670.34 137.5V85.98H656.9V83.32H670.34V60.78H673.28V83.32H689.1Z" fill="black"/>
<path d="M649.2 83.32V155H646.4V138.06C641.36 150.94 632.82 157.24 620.5 157.24C612.24 157.24 605.8 154.72 601.32 149.68C596.84 144.64 594.6 137.78 594.6 129.38V83.32H597.54V126.44C597.54 131.2 597.68 134.7 597.96 136.94C598.24 139.18 599.08 141.28 600.34 143.52C602.02 147.02 604.82 149.82 608.46 151.78C612.1 153.74 616.16 154.72 620.64 154.72C628.62 154.72 634.92 151.78 639.4 145.76C643.88 139.74 646.26 132.6 646.26 124.34V83.32H649.2Z" fill="black"/>
<path d="M551.403 81.5C561.063 81.5 568.763 85 574.643 92C580.383 99 583.323 108.24 583.323 119.86C583.323 131.34 580.383 140.3 574.503 147.02C568.623 153.74 560.783 157.1 550.983 157.1C541.183 157.1 533.343 153.74 527.463 146.88C521.583 140.02 518.783 130.78 518.783 119.3C518.783 107.96 521.723 98.86 527.743 91.86C533.623 85 541.603 81.5 551.403 81.5ZM551.263 84.16C542.303 84.16 535.163 87.38 529.703 93.82C524.243 100.26 521.583 108.8 521.583 119.16C521.583 129.94 524.243 138.48 529.563 144.92C534.883 151.36 542.163 154.44 551.123 154.44C559.943 154.44 567.083 151.36 572.403 145.06C577.723 138.9 580.383 130.5 580.383 119.86C580.383 109.08 577.723 100.4 572.403 93.96C567.083 87.52 560.083 84.16 551.263 84.16Z" fill="black"/>
<path d="M450.167 55.32V103.76C452.127 96.76 455.487 91.3 460.387 87.24C465.147 83.32 471.307 81.22 478.867 81.22C488.387 81.22 495.947 84.72 501.547 91.44C507.147 98.3 509.947 107.54 509.947 119.16C509.947 131.06 507.147 140.44 501.547 147.16C495.947 154.02 488.387 157.38 478.867 157.38C464.167 157.38 454.647 149.96 450.167 134.84V155H447.367V55.32H450.167ZM478.307 83.88C469.907 83.88 463.047 87.1 457.867 93.54C452.687 99.98 450.167 108.52 450.167 119.02C450.167 129.94 452.687 138.62 458.007 145.2C463.327 151.78 470.187 155 478.867 155C487.547 155 494.407 151.92 499.447 145.48C504.487 139.04 507.007 130.36 507.007 119.44C507.007 108.24 504.487 99.56 499.447 93.26C494.407 87.1 487.267 83.88 478.307 83.88Z" fill="black"/>
<path d="M401 55.32L441.04 155H437.82L424.66 122.1H373.98L360.54 155H357.32L398.34 55.32H401ZM423.68 119.44L399.6 58.4L374.96 119.44H423.68Z" fill="black"/>
<path d="M208 160V159H766V160H208Z" fill="black"/>
<path d="M208 170V169H815V170H208Z" fill="black"/>
</svg>
